# xmcd
#
# Track frame offsets: 
#        150
#        27605
#        46814
#        71304
#        89763
#        101139
#        125061
#        147829
#        169155
#        179524
#        195552
#        209872
#        229177
#        250654
#
# Disc length: 3477 seconds
#
# Revision: 0
# Processed by: cddbd v1.5.2PL0 Copyright (c) Steve Scherf et al.
# Submitted via: ExactAudioCopy v0.95b4
#
DISCID=d50d930e
DTITLE=Guy Chaput and Sci-fi - awakenings
DYEAR=2007
DGENRE=Blues
TTITLE0='57 chev blues
TTITLE1=in ruin
TTITLE2=the wind
TTITLE3=that girl
TTITLE4=la vieille bebite
TTITLE5=when it was late
TTITLE6=my my my
TTITLE7=ya ya
TTITLE8=everywhere present
TTITLE9=the back room
TTITLE10=what's the matter with me?
TTITLE11=my way
TTITLE12=gabilou
TTITLE13=awakenings
EXTD=
EXTT0=
EXTT1=
EXTT2=
EXTT3=
EXTT4=
EXTT5=
EXTT6=
EXTT7=
EXTT8=
EXTT9=
EXTT10=
EXTT11=
EXTT12=
EXTT13=
PLAYORDER=
